<svg width="44" height="43" viewBox="0 0 44 43" fill="none" xmlns="http://www.w3.org/2000/svg">
<g clip-path="url(#clip0_1_400)">
<path d="M41.3005 11.2559C40.3519 10.75 39.2137 11.2559 38.7078 11.5088L31.5622 14.9867C31.5622 13.975 31.1828 13.2161 29.9813 12.647C29.4755 12.3941 28.9696 12.3309 28.5269 12.3309C28.7166 11.1926 28.5269 10.3073 27.9578 9.67497C27.0725 8.6632 25.4916 8.6632 24.6063 8.72644C24.0372 6.3235 19.6107 4.86909 15.4372 8.15732C13.8563 9.42203 12.3387 12.0779 11.2637 13.8485C11.0107 13.2161 10.8843 12.647 10.5049 12.0779C9.74604 10.8764 8.29163 10.4338 7.65927 9.42203C7.27986 8.85291 7.21663 8.09409 7.02692 7.33526C6.4578 5.37497 4.94016 3.79409 2.97986 3.22497C2.22104 2.97203 1.58869 3.03526 1.14604 3.47791C0.640157 3.98379 0.766628 4.74262 0.956333 5.31173C1.14604 7.08232 1.33575 9.16909 2.34751 12.9C3.29604 16.2514 4.56074 19.5397 6.2681 22.575C7.09016 24.0294 7.97545 25.4838 8.29163 27.0647C8.98722 30.1632 7.65927 33.8309 10.3152 36.9294C11.3269 38.0676 12.3387 39.0161 13.7931 38.5103C14.4887 38.7 14.6784 37.7514 14.1093 37.625C11.7696 36.9926 9.80927 34.8426 9.87251 32.25C9.87251 31.6176 9.99898 30.9853 10.0622 30.3529C10.2519 29.2779 10.3784 28.1397 10.1255 26.9382C9.80927 25.4838 9.05045 24.1559 8.29163 22.9544C8.16516 22.7014 7.97545 22.4485 7.84898 22.1956C5.69898 18.2117 4.1181 14.2279 3.2328 10.3073C3.16957 9.99115 3.10633 9.67497 3.0431 9.35879C3.80192 8.72644 4.18133 7.52497 3.86516 6.44997C3.54898 5.56467 3.0431 4.80585 2.1578 4.04703C3.2328 4.04703 5.44604 5.37497 6.14163 7.65144C6.33133 8.34703 6.4578 9.23232 6.90045 9.99115C7.65927 11.1926 9.05045 11.6985 9.74604 12.647C10.2519 13.4059 10.3152 14.6073 11.1372 15.4294C12.149 16.5044 14.6784 17.4529 15.2475 18.5279C15.2475 18.5911 15.3107 18.6544 15.374 18.6544C15.6902 19.7294 16.6387 20.3617 17.9666 20.0456C18.4093 21.1838 19.6107 21.8161 20.8122 21.8794C18.599 24.4088 19.8637 26.875 21.9505 26.875C23.0887 26.875 24.0372 26.1794 24.8593 25.4206C27.7681 22.7647 29.7284 20.2985 30.9299 17.6426C31.1196 17.2 31.3725 16.6309 31.499 16.0617C31.6255 15.9985 35.9887 13.8485 39.1505 12.3309C39.7828 12.0147 40.4152 11.7617 40.8578 12.0147C41.2372 12.2676 41.3637 12.8367 41.2372 13.2794C41.1107 13.8485 40.7313 14.2911 40.2887 14.797C35.9887 19.8559 33.5857 20.0456 31.6887 21.8794C30.0446 23.5867 25.8078 31.6176 24.796 33.5147C24.1005 34.9059 23.3416 36.297 22.2034 37.3088C21.1284 38.2573 19.2946 38.8264 17.9666 38.1941C17.524 38.0044 17.1446 38.447 17.3343 38.8264C17.0813 39.2059 18.0931 39.7117 18.4725 39.8382C20.4328 40.2809 22.646 39.2059 23.4681 37.4353H23.4049C24.3534 36.3603 25.049 35.0956 25.6813 33.8309C26.5666 32.0603 30.8034 24.0926 32.321 22.6382C34.0916 20.9309 36.5578 20.6779 40.9843 15.4926C41.4269 14.9235 41.9328 14.3544 42.1225 13.5956C42.3755 12.7735 42.1225 11.6985 41.3005 11.2559ZM2.79016 8.15732C2.34751 6.19703 2.09457 5.69115 1.90486 5.05879C2.41075 5.62791 3.35927 7.08232 2.79016 8.15732ZM11.8328 14.797C12.8446 13.0264 14.4887 10.1176 16.0063 8.91615C19.6107 6.07056 23.3416 7.27203 23.721 9.04262C23.8475 9.67497 23.5946 10.3706 23.2784 11.0661C22.646 12.5206 21.8872 13.975 21.1916 15.4294C20.6225 16.5044 19.9902 17.6426 19.1049 18.4014C19.0416 17.0735 17.7137 16.2514 16.5755 16.8206C17.1446 15.7456 18.2828 14.7338 18.346 13.3426C18.346 12.647 18.0931 11.7617 18.5357 11.4456C18.7887 11.3191 18.8519 11.0029 18.7255 10.8132C18.4093 10.1809 17.3343 10.8132 17.3343 12.0779C17.3343 12.4573 17.3975 12.9632 17.3975 13.2794C17.3343 14.6073 15.8166 15.6823 15.374 17.2632C14.4887 16.4411 12.5284 15.4926 11.8328 14.797ZM16.2593 18.4014C16.3857 18.3382 16.5122 18.275 16.5755 18.0853C16.8916 17.1367 18.599 17.3897 18.0931 18.9706C17.271 19.2867 16.5122 19.2235 16.2593 18.4014ZM18.8519 19.7294C20.3696 18.9706 21.2549 17.3897 22.0769 15.872C22.8357 14.4176 23.5313 12.9632 24.2269 11.5088C24.4799 10.9397 24.7328 10.3073 24.796 9.7382C25.7446 9.67497 26.8196 9.67497 27.3887 10.3706C27.8946 10.9397 27.8946 11.8882 27.4519 13.2161C26.6299 15.6823 24.5431 19.9823 22.0769 20.8676C20.8122 21.1838 19.2946 20.8044 18.8519 19.7294ZM20.6225 24.9147C20.8122 24.7882 21.1916 24.2191 21.8872 24.0926C22.2034 24.0294 22.646 24.2191 22.7093 24.472C22.899 25.1044 22.0137 25.6735 21.824 25.9264C21.1916 25.9264 20.8122 25.547 20.6225 24.9147ZM30.0446 17.2632C28.6534 20.2353 25.9343 23.3338 23.6578 25.2309C24.1637 23.7132 22.4563 22.575 20.8755 23.5867C21.1916 22.8911 21.824 22.2588 22.3299 21.7529C25.1755 20.7411 27.4519 16.0617 28.3372 13.3426C29.1593 13.0897 30.3607 13.7853 30.5505 14.4809C30.8034 15.4294 30.424 16.4411 30.0446 17.2632Z" fill="black"/>
<path d="M26.5667 3.6041C26.4402 4.61586 26.377 5.69086 26.3137 6.70263C26.3137 7.33498 27.2623 7.33498 27.2623 6.70263C27.2623 5.69086 27.3255 4.74233 27.5152 3.73057C27.5784 3.09821 26.6299 2.97174 26.5667 3.6041Z" fill="black"/>
<path d="M29.0961 7.27233L30.8666 5.0591C31.2461 4.55322 30.4872 3.9841 30.1078 4.48998L28.4005 6.70322C27.9578 7.2091 28.7167 7.77822 29.0961 7.27233Z" fill="black"/>
<path d="M30.8034 9.16907L32.7005 8.28378C33.2696 8.03084 32.8902 7.14554 32.321 7.39848L30.424 8.28378C29.8549 8.59996 30.2343 9.42201 30.8034 9.16907Z" fill="black"/>
</g>
<defs>
<clipPath id="clip0_1_400">
<rect width="43" height="43" fill="white" transform="translate(0.0078125)"/>
</clipPath>
</defs>
</svg>
