<svg width="45" height="44" viewBox="0 0 45 44" fill="none" xmlns="http://www.w3.org/2000/svg">
<g clip-path="url(#clip0_1_146)">
<path d="M24.3742 35.329L21.8981 27.4725L27.5692 25.7652L30.0393 33.6026C30.1034 33.8054 29.91 33.9957 29.7022 33.935L27.0666 33.1637C26.9646 33.1338 26.8541 33.165 26.7839 33.2437L24.8385 35.4251C24.6985 35.5819 24.437 35.5278 24.3742 35.329Z" fill="#FC4E51"/>
<path d="M25.4174 26.4131L24.1481 26.7954L26.3892 33.6863L26.784 33.2437C26.8539 33.165 26.9643 33.1338 27.0664 33.1637L27.6743 33.3415L25.4174 26.4131Z" fill="#EA3942"/>
<path d="M36.0817 23.8876L28.0426 21.4677L26.2959 27.0096L34.3153 29.4239C34.5227 29.4862 34.7174 29.2976 34.6553 29.0945L33.8664 26.5185C33.8359 26.4187 33.8678 26.3108 33.948 26.2425L36.1804 24.3413C36.3406 24.2045 36.2852 23.949 36.0817 23.8876Z" fill="#FC4E51"/>
<path d="M34.4163 25.8436L27.3551 23.6501L26.9636 24.8912L34.0413 27.0893L33.8664 26.5185C33.8359 26.4187 33.8678 26.3108 33.948 26.2422L34.4163 25.8436Z" fill="#EA3942"/>
<path d="M44.1195 10.2902L34.5035 0.892395L18.6911 18.331L0.844275 33.7867C-0.205143 34.8122 1.09706 37.7472 3.75216 40.3423C6.4076 42.9374 9.41117 44.2097 10.4606 43.1841L26.2757 25.7429L44.1195 10.2902Z" fill="#F3E8D7"/>
<path d="M40.5929 6.84338L22.7491 22.2965L5.25513 41.6464C7.45736 43.3311 9.60622 44.0191 10.4606 43.1841L26.2757 25.7429L44.1195 10.2898L40.5929 6.84338Z" fill="#DDD1C3"/>
<path d="M41.2113 3.7345C38.5562 1.13942 35.5527 -0.132865 34.5033 0.892703C33.4538 1.91827 34.7557 4.85324 37.4111 7.44833C40.0666 10.0434 43.0698 11.3157 44.1192 10.2901C45.1686 9.26456 43.8668 6.32959 41.2113 3.7345Z" fill="#DDD1C3"/>
<path d="M34.5405 3.51666C35.0592 4.71742 36.0593 6.12651 37.4115 7.448C38.7637 8.76982 40.2056 9.74716 41.4346 10.2537C41.7512 9.31869 40.8102 7.46014 39.1045 5.79351C37.3991 4.12688 35.4976 3.20695 34.5405 3.51666Z" fill="#EFEFEF"/>
<path d="M18.5454 16.287C19.1262 16.2562 19.6667 15.9869 20.034 15.5459C20.6983 14.7477 21.871 14.5663 22.7552 15.1247C23.244 15.4334 23.8429 15.5259 24.4052 15.3802C25.4227 15.1161 26.4809 15.6427 26.8602 16.6027C27.0697 17.1328 27.4987 17.5521 28.0412 17.7568C29.0235 18.1279 29.5623 19.1617 29.2924 20.1561C29.143 20.7056 29.238 21.2912 29.5536 21.7686C30.125 22.6327 29.9393 23.7787 29.1225 24.4279C28.6714 24.7869 28.3957 25.3151 28.3642 25.8826C28.3068 26.9102 27.4672 27.7304 26.4161 27.7868C25.835 27.8176 25.2945 28.087 24.9276 28.5279C24.2629 29.3261 23.0902 29.5076 22.206 28.9492C21.7175 28.6404 21.1183 28.5479 20.556 28.6936C19.5385 28.9577 18.4807 28.4311 18.1013 27.4712C17.8915 26.941 17.4625 26.5217 16.92 26.3167C15.938 25.946 15.3989 24.9122 15.6691 23.9178C15.8185 23.3683 15.7235 22.7826 15.4076 22.3053C14.8362 21.4411 15.0222 20.2952 15.8386 19.6459C16.2902 19.287 16.5655 18.7588 16.5973 18.1912C16.6548 17.1637 17.494 16.3431 18.5454 16.287Z" fill="#FCB038"/>
<path d="M29.5535 21.7686C29.238 21.2912 29.143 20.7056 29.2924 20.1561C29.5623 19.1617 29.0235 18.1279 28.0412 17.7568C27.4987 17.5521 27.0697 17.1328 26.8602 16.6027C26.4805 15.6427 25.4227 15.1161 24.4051 15.3802C23.8428 15.5259 23.2439 15.4334 22.7552 15.1247C21.8709 14.5663 20.6983 14.7477 20.0339 15.5459C19.6667 15.9869 19.1262 16.2562 18.5454 16.287C17.494 16.3431 16.6547 17.1637 16.5973 18.1912C16.5929 18.2637 16.5849 18.3356 16.5731 18.4067C19.1983 17.6958 22.1291 18.3467 24.193 20.3637C26.2566 22.3807 26.9229 25.2445 26.1951 27.8104C26.268 27.7986 26.3415 27.7907 26.416 27.7868C27.4671 27.7307 28.3067 26.9102 28.3641 25.8826C28.3957 25.3151 28.6713 24.7869 29.1225 24.4279C29.9393 23.7787 30.1249 22.6327 29.5535 21.7686Z" fill="#FD8F31"/>
<path d="M25.5886 18.9993C23.8721 17.3218 21.0888 17.3218 19.3723 18.9993C17.6555 20.6771 17.6555 23.3968 19.3723 25.0746C21.0888 26.7521 23.8721 26.7521 25.5886 25.0746C27.3054 23.3968 27.3054 20.6771 25.5886 18.9993Z" fill="#FFE285"/>
</g>
<defs>
<clipPath id="clip0_1_146">
<rect width="44" height="43" fill="white" transform="translate(0.396973 0.539062)"/>
</clipPath>
</defs>
</svg>
