<svg width="43" height="42" viewBox="0 0 43 42" fill="none" xmlns="http://www.w3.org/2000/svg">
<g clip-path="url(#clip0_1_208)">
<path d="M25.6417 41.3618L15.7979 38.1588C15.2955 37.9953 14.9565 37.5364 14.9565 37.0193V4.82934C14.9565 4.31235 15.2954 3.85334 15.7979 3.68982L25.6417 0.486859C26.4385 0.227646 27.2612 0.806531 27.2612 1.62637V40.2223C27.2612 41.0421 26.4385 41.621 25.6417 41.3618Z" fill="#FFF5F5"/>
<path d="M14.9565 20.9243V37.0193C14.9565 37.5363 15.2954 37.9953 15.7979 38.1588L25.6417 41.3618C26.4385 41.6211 27.2612 41.0421 27.2612 40.2223V20.9243H14.9565Z" fill="#EBEBF0"/>
<path d="M1.42139 15.7192C2.10096 15.7192 2.65186 15.1815 2.65186 14.5181C2.65186 13.8547 2.10096 13.3169 1.42139 13.3169C0.741818 13.3169 0.190918 13.8547 0.190918 14.5181C0.190918 15.1815 0.741818 15.7192 1.42139 15.7192Z" fill="#BDFDFF"/>
<path d="M7.57373 11.3149C8.2533 11.3149 8.8042 10.7772 8.8042 10.1138C8.8042 9.45038 8.2533 8.9126 7.57373 8.9126C6.89416 8.9126 6.34326 9.45038 6.34326 10.1138C6.34326 10.7772 6.89416 11.3149 7.57373 11.3149Z" fill="#BDFDFF"/>
<path d="M10.855 18.522C11.5345 18.522 12.0854 17.9842 12.0854 17.3208C12.0854 16.6574 11.5345 16.1196 10.855 16.1196C10.1754 16.1196 9.62451 16.6574 9.62451 17.3208C9.62451 17.9842 10.1754 18.522 10.855 18.522Z" fill="#BDFDFF"/>
<path d="M1.42139 28.5317C2.10096 28.5317 2.65186 27.994 2.65186 27.3306C2.65186 26.6672 2.10096 26.1294 1.42139 26.1294C0.741818 26.1294 0.190918 26.6672 0.190918 27.3306C0.190918 27.994 0.741818 28.5317 1.42139 28.5317Z" fill="#AED0FF"/>
<path d="M7.57373 32.936C8.2533 32.936 8.8042 32.3983 8.8042 31.7349C8.8042 31.0715 8.2533 30.5337 7.57373 30.5337C6.89416 30.5337 6.34326 31.0715 6.34326 31.7349C6.34326 32.3983 6.89416 32.936 7.57373 32.936Z" fill="#AED0FF"/>
<path d="M10.855 25.729C11.5345 25.729 12.0854 25.1912 12.0854 24.5278C12.0854 23.8644 11.5345 23.3267 10.855 23.3267C10.1754 23.3267 9.62451 23.8644 9.62451 24.5278C9.62451 25.1912 10.1754 25.729 10.855 25.729Z" fill="#AED0FF"/>
<path d="M4.29248 22.1255C4.97205 22.1255 5.52295 21.5877 5.52295 20.9243C5.52295 20.2609 4.97205 19.7231 4.29248 19.7231C3.61291 19.7231 3.06201 20.2609 3.06201 20.9243C3.06201 21.5877 3.61291 22.1255 4.29248 22.1255Z" fill="#BDFDFF"/>
<path d="M21.1089 22.1255C21.7885 22.1255 22.3394 21.5877 22.3394 20.9243C22.3394 20.2609 21.7885 19.7231 21.1089 19.7231C20.4293 19.7231 19.8784 20.2609 19.8784 20.9243C19.8784 21.5877 20.4293 22.1255 21.1089 22.1255Z" fill="#BDFDFF"/>
<path d="M41.8305 20.075L38.5492 16.8718C38.0687 16.4027 37.2896 16.4027 36.8091 16.8718C36.3286 17.3409 36.3286 18.1014 36.8091 18.5705L37.9899 19.7231H33.5776C32.8981 19.7231 32.3472 20.2609 32.3472 20.9243C32.3472 21.5876 32.8981 22.1254 33.5776 22.1254H37.9899L36.8091 23.2781C36.3286 23.7472 36.3286 24.5077 36.8091 24.9768C37.2896 25.4459 38.0687 25.4459 38.5492 24.9768L41.8305 21.7737C42.3111 21.3046 42.3111 20.544 41.8305 20.075Z" fill="#6A61B4"/>
<path d="M31.1167 11.7153H35.5289L34.3482 12.8679C33.8676 13.337 33.8676 14.0975 34.3482 14.5666C34.8287 15.0357 35.6077 15.0357 36.0883 14.5666L39.3695 11.3635C39.8501 10.8945 39.8501 10.1339 39.3695 9.66481L36.0883 6.46169C35.6077 5.99259 34.8287 5.99259 34.3482 6.46169C33.8676 6.93078 33.8676 7.69129 34.3482 8.16038L35.5289 9.31295H31.1167C30.4372 9.31295 29.8862 9.85075 29.8862 10.5141C29.8862 11.1775 30.4372 11.7153 31.1167 11.7153Z" fill="#6A61B4"/>
<path d="M36.0883 27.282C35.6077 26.8129 34.8287 26.8129 34.3482 27.282C33.8676 27.7511 33.8676 28.5116 34.3482 28.9807L35.5289 30.1333H31.1167C30.4372 30.1333 29.8862 30.6711 29.8862 31.3344C29.8862 31.9978 30.4372 32.5356 31.1167 32.5356H35.5289L34.3482 33.6882C33.8676 34.1573 33.8676 34.9178 34.3482 35.3869C34.8287 35.856 35.6077 35.856 36.0883 35.3869L39.3695 32.1838C39.8501 31.7148 39.8501 30.9542 39.3695 30.4851L36.0883 27.282Z" fill="#453D83"/>
<path d="M33.5776 22.1255H37.9899L36.8091 23.2781C36.3286 23.7472 36.3286 24.5077 36.8091 24.9768C37.2896 25.4459 38.0687 25.4459 38.5492 24.9768L41.8305 21.7737C42.0708 21.5392 42.1909 21.2317 42.1909 20.9243H32.3472C32.3472 21.5877 32.8981 22.1255 33.5776 22.1255Z" fill="#453D83"/>
<path d="M21.1089 22.1255C21.7884 22.1255 22.3394 21.5877 22.3394 20.9243H19.8784C19.8784 21.5877 20.4293 22.1255 21.1089 22.1255Z" fill="#AED0FF"/>
<path d="M4.29248 22.1255C4.97203 22.1255 5.52295 21.5877 5.52295 20.9243H3.06201C3.06201 21.5877 3.61293 22.1255 4.29248 22.1255Z" fill="#AED0FF"/>
<path d="M21.1089 11.3149C21.7885 11.3149 22.3394 10.7772 22.3394 10.1138C22.3394 9.45038 21.7885 8.9126 21.1089 8.9126C20.4293 8.9126 19.8784 9.45038 19.8784 10.1138C19.8784 10.7772 20.4293 11.3149 21.1089 11.3149Z" fill="#BDFDFF"/>
<path d="M21.1089 32.936C21.7885 32.936 22.3394 32.3983 22.3394 31.7349C22.3394 31.0715 21.7885 30.5337 21.1089 30.5337C20.4293 30.5337 19.8784 31.0715 19.8784 31.7349C19.8784 32.3983 20.4293 32.936 21.1089 32.936Z" fill="#AED0FF"/>
</g>
<defs>
<clipPath id="clip0_1_208">
<rect width="42" height="41" fill="white" transform="translate(0.190918 0.424316)"/>
</clipPath>
</defs>
</svg>
