<svg width="62" height="61" viewBox="0 0 62 61" fill="none" xmlns="http://www.w3.org/2000/svg">
<g clip-path="url(#clip0_1_328)">
<path d="M30.0337 35.466C29.7449 35.3 29.4151 35.2529 29.1148 35.3634L26.6746 36.2603C25.7774 36.5898 24.7958 36.6357 23.8251 36.4091C24.3841 37.8707 25.7756 38.7665 27.0428 38.4725C27.3651 38.3977 27.6832 38.3044 27.996 38.1923L30.0979 37.439C30.4786 37.3027 30.7218 36.9474 30.7788 36.5238C30.761 36.4389 30.7365 36.3545 30.7039 36.2706C30.5661 35.9117 30.3198 35.6304 30.0337 35.466Z" fill="url(#paint0_linear_1_328)"/>
<path d="M32.9183 39.1937L29.4713 39.5831C28.9583 39.641 28.4451 39.6738 27.9333 39.682C25.9212 39.7142 24.2151 38.2078 23.9844 36.2087C25.339 36.7556 26.8225 36.9607 28.2971 36.7844L32.3081 36.3039C32.8018 36.2447 33.2746 36.3928 33.6369 36.6801C33.9959 36.9648 34.2473 37.3868 34.3047 37.8777C34.3187 37.9927 34.3204 38.106 34.312 38.2183C34.0523 38.7389 33.5427 39.1231 32.9183 39.1937Z" fill="url(#paint1_linear_1_328)"/>
<path d="M34.4638 42.1767L30.0475 41.6912C29.3904 41.6188 28.74 41.515 28.0983 41.3809C25.5754 40.8536 23.869 38.4905 24.1445 35.9279C25.6826 36.9932 27.4781 37.668 29.37 37.8636L34.5165 38.3947C35.1501 38.4599 35.6989 38.7783 36.0705 39.2394C36.4387 39.6963 36.6337 40.2945 36.567 40.924C36.5521 41.0715 36.5222 41.2136 36.48 41.3514C36.0085 41.9286 35.2635 42.2648 34.4638 42.1767Z" fill="url(#paint2_linear_1_328)"/>
<path d="M1.71703 17.9312L10.3008 14.2514C10.4674 14.18 10.6602 14.2584 10.7296 14.4258L11.7718 16.936L2.3109 20.9918L1.37939 18.7484C1.24701 18.4295 1.39813 18.0637 1.71703 17.9312Z" fill="url(#paint3_linear_1_328)"/>
<path d="M38.585 43.9411C38.7112 42.7428 37.8383 41.6666 36.6398 41.5427L31.761 41.0388C29.8623 40.8427 28.0687 40.1382 26.5541 39.0251C27.3961 38.3208 27.5206 37.0667 26.826 36.2046L25.9857 35.1617C24.3205 33.0953 23.3078 30.5807 23.0776 27.9406C22.8129 24.9058 21.013 22.212 18.3093 20.8042L11.6016 17.3113L9.78041 18.7788L4.43105 23.0894L5.49978 23.9485C9.20131 26.9243 12.5718 30.2911 15.5525 33.99L19.0068 38.2767C22.2331 42.2805 26.9108 44.8443 32.0108 45.4042L36.1986 45.8638C37.391 45.9948 38.4593 45.134 38.585 43.9411Z" fill="url(#paint4_linear_1_328)"/>
<path d="M19.0068 38.2768C20.9066 40.6344 23.3099 42.492 26.006 43.7359L26.5539 39.0251C26.5444 39.0332 26.5192 39.0544 26.5094 39.0623C25.6387 39.7639 24.3413 39.5984 23.6397 38.7278L22.7326 37.6021C21.0081 35.462 19.5569 33.1154 18.4125 30.6165L17.256 28.0912L16.4958 35.1607L19.0068 38.2768Z" fill="url(#paint5_linear_1_328)"/>
<path d="M36.1981 45.8641L32.0111 45.4037C29.9135 45.1726 27.8883 44.6045 26.0063 43.7356L26.4144 39.9396C27.8727 40.9496 29.575 41.5893 31.3687 41.7748L36.2481 42.2783C36.8487 42.3401 37.3691 42.6419 37.7214 43.0791C38.0705 43.5123 38.2553 44.0794 38.1921 44.6762C38.1779 44.8162 38.1496 44.9509 38.1097 45.0815C37.6626 45.6288 36.9563 45.9476 36.1981 45.8641Z" fill="url(#paint6_linear_1_328)"/>
<path d="M12.5105 17.7847L11.6014 17.3114L9.78024 18.7789L4.43105 23.0894L5.49982 23.9486C7.53095 25.5815 9.46173 27.3329 11.2838 29.1916L12.5105 17.7847Z" fill="url(#paint7_linear_1_328)"/>
<path d="M3.5766 23.7579L2.1583 21.9977C1.82866 21.5887 1.89305 20.9899 2.30211 20.6602L10.1013 14.3756C10.5104 14.046 11.1092 14.1103 11.4388 14.5194L12.8572 16.2795C13.1868 16.6886 13.1224 17.2874 12.7134 17.617L4.91408 23.9017C4.50502 24.2313 3.90624 24.167 3.5766 23.7579Z" fill="url(#paint8_linear_1_328)"/>
<path d="M11.3561 15.2882C11.0265 14.8791 10.4277 14.8147 10.0187 15.1444L2.2195 21.4291C2.12594 21.5045 2.05133 21.5945 1.99439 21.6925C2.02912 21.8004 2.08294 21.9041 2.15835 21.9977L3.57665 23.7579C3.90629 24.167 4.50506 24.2313 4.91412 23.9017L12.7134 17.6169C12.8069 17.5415 12.8816 17.4516 12.9384 17.3536C12.9037 17.2456 12.8498 17.1419 12.7745 17.0483L11.3561 15.2882Z" fill="url(#paint9_linear_1_328)"/>
<path d="M60.2306 43.1722L51.5068 46.912C51.3769 46.9676 51.2267 46.9065 51.1726 46.7762L50.1025 44.1988L59.6367 40.1116L60.5683 42.355C60.7007 42.674 60.5495 43.0398 60.2306 43.1722Z" fill="url(#paint10_linear_1_328)"/>
<path d="M31.6183 25.7642C31.9071 25.9301 32.237 25.9773 32.5373 25.8668L34.9775 24.9699C35.8747 24.6404 36.8563 24.5945 37.8269 24.8211C37.2679 23.3595 35.8765 22.4636 34.6093 22.7577C34.287 22.8324 33.9688 22.9257 33.656 23.0378L31.5541 23.7911C31.1734 23.9274 30.9302 24.2827 30.8732 24.7063C30.891 24.7912 30.9155 24.8755 30.9481 24.9595C31.0859 25.3184 31.3322 25.5998 31.6183 25.7642Z" fill="url(#paint11_linear_1_328)"/>
<path d="M28.7337 22.0365L32.1808 21.6471C32.6937 21.5892 33.2069 21.5564 33.7187 21.5482C35.7308 21.516 37.4369 23.0224 37.6676 25.0215C36.313 24.4746 34.8295 24.2694 33.3549 24.4458L29.3439 24.9262C28.8502 24.9855 28.3774 24.8374 28.0151 24.5501C27.6562 24.2654 27.4048 23.8434 27.3473 23.3525C27.3333 23.2375 27.3316 23.1242 27.34 23.0119C27.5998 22.4913 28.1094 22.1071 28.7337 22.0365Z" fill="url(#paint12_linear_1_328)"/>
<path d="M27.1883 19.0533L31.6045 19.5389C32.2617 19.6113 32.912 19.7151 33.5538 19.8492C36.0767 20.3765 37.7831 22.7396 37.5076 25.3022C35.9695 24.2369 34.1739 23.5621 32.282 23.3665L27.1355 22.8354C26.5019 22.7702 25.9531 22.4518 25.5815 21.9907C25.2133 21.5338 25.0183 20.9356 25.085 20.3061C25.0999 20.1586 25.1298 20.0165 25.172 19.8787C25.6436 19.3016 26.3886 18.9654 27.1883 19.0533Z" fill="url(#paint13_linear_1_328)"/>
<path d="M23.0671 17.2891C22.9409 18.4874 23.8138 19.5636 25.0123 19.6874L29.8911 20.1914C31.7898 20.3875 33.5833 21.092 35.098 22.2051C34.256 22.9094 34.1313 24.1635 34.8261 25.0256L35.6664 26.0684C37.3315 28.1349 38.3442 30.6495 38.5745 33.2896C38.8392 36.3244 40.6391 39.0182 43.3428 40.426L50.0505 43.9189L51.8717 42.4513L57.2208 38.1409L56.1521 37.2817C52.4506 34.3059 49.08 30.9391 46.0994 27.2403L42.6451 22.9535C39.4188 18.9497 34.7411 16.3859 29.6411 15.8261L25.4533 15.3664C24.2611 15.2353 23.1927 16.0962 23.0671 17.2891Z" fill="url(#paint14_linear_1_328)"/>
<path d="M53.198 34.7582L45.0569 41.3185L50.0507 43.9188L51.8719 42.4513L57.221 38.1408L56.1523 37.2817C55.1421 36.4695 54.1576 35.6273 53.198 34.7582Z" fill="url(#paint15_linear_1_328)"/>
<path d="M50.2133 46.7108L48.7949 44.9506C48.4653 44.5416 48.5296 43.9428 48.9387 43.6132L56.738 37.3285C57.1471 36.9988 57.7458 37.0632 58.0754 37.4723L59.4938 39.2325C59.8234 39.6415 59.759 40.2403 59.35 40.5699L51.5507 46.8547C51.1417 47.1841 50.5429 47.1197 50.2133 46.7108Z" fill="url(#paint16_linear_1_328)"/>
<path d="M57.9927 38.2411C57.6631 37.832 57.0643 37.7676 56.6553 38.0973L48.856 44.382C48.7625 44.4574 48.6878 44.5474 48.631 44.6454C48.6657 44.7533 48.7195 44.857 48.7949 44.9506L50.2133 46.7107C50.543 47.1198 51.1417 47.1842 51.5507 46.8546L59.35 40.5698C59.4435 40.4944 59.5181 40.4045 59.5751 40.3064C59.5404 40.1985 59.4865 40.0948 59.4111 40.0012L57.9927 38.2411Z" fill="url(#paint17_linear_1_328)"/>
<path d="M44.3959 33.1389L43.2394 30.6136C42.0951 28.1147 40.6439 25.7682 38.9193 23.6281L38.0122 22.5024C37.3106 21.6317 36.0137 21.467 35.1431 22.1686C35.1333 22.1765 35.098 22.205 35.098 22.205C34.256 22.9093 34.1313 24.1635 34.826 25.0256L35.6663 26.0684C37.3314 28.1349 38.3441 30.6494 38.5744 33.2896C38.8391 36.3244 40.639 39.0182 43.3427 40.426L43.5978 40.5588L44.3959 33.1389Z" fill="url(#paint18_linear_1_328)"/>
</g>
<defs>
<linearGradient id="paint0_linear_1_328" x1="27.0029" y1="35.0768" x2="27.5677" y2="37.7009" gradientUnits="userSpaceOnUse">
<stop stop-color="#FCB37E"/>
<stop offset="1" stop-color="#8C6239"/>
</linearGradient>
<linearGradient id="paint1_linear_1_328" x1="29.4001" y1="35.7194" x2="28.9496" y2="38.5338" gradientUnits="userSpaceOnUse">
<stop stop-color="#FCB37E"/>
<stop offset="1" stop-color="#8C6239"/>
</linearGradient>
<linearGradient id="paint2_linear_1_328" x1="31.0388" y1="36.8227" x2="29.6841" y2="40.2104" gradientUnits="userSpaceOnUse">
<stop stop-color="#FCB37E"/>
<stop offset="1" stop-color="#8C6239"/>
</linearGradient>
<linearGradient id="paint3_linear_1_328" x1="5.5759" y1="16.5249" x2="6.90792" y2="18.1799" gradientUnits="userSpaceOnUse">
<stop stop-color="#00ADFB"/>
<stop offset="1" stop-color="#3F3CED"/>
</linearGradient>
<linearGradient id="paint4_linear_1_328" x1="28.3172" y1="27.3811" x2="16.1982" y2="38.9416" gradientUnits="userSpaceOnUse">
<stop stop-color="#FCB37E"/>
<stop offset="1" stop-color="#8C6239"/>
</linearGradient>
<linearGradient id="paint5_linear_1_328" x1="19.0672" y1="38.0346" x2="23.6288" y2="34.271" gradientUnits="userSpaceOnUse">
<stop stop-color="#8C6239" stop-opacity="0"/>
<stop offset="1" stop-color="#8C6239"/>
</linearGradient>
<linearGradient id="paint6_linear_1_328" x1="32.3908" y1="42.261" x2="35.2936" y2="36.4191" gradientUnits="userSpaceOnUse">
<stop stop-color="#FFDAAA" stop-opacity="0"/>
<stop offset="0.2054" stop-color="#FFDFB5" stop-opacity="0.205"/>
<stop offset="0.5703" stop-color="#FFECD4" stop-opacity="0.57"/>
<stop offset="1" stop-color="white"/>
</linearGradient>
<linearGradient id="paint7_linear_1_328" x1="9.88159" y1="24.6709" x2="5.9698" y2="12.9663" gradientUnits="userSpaceOnUse">
<stop stop-color="#8C6239" stop-opacity="0"/>
<stop offset="1" stop-color="#8C6239"/>
</linearGradient>
<linearGradient id="paint8_linear_1_328" x1="7.47602" y1="18.938" x2="8.43344" y2="25.7456" gradientUnits="userSpaceOnUse">
<stop stop-color="#91F27F"/>
<stop offset="1" stop-color="#4AB172"/>
</linearGradient>
<linearGradient id="paint9_linear_1_328" x1="7.56203" y1="23.1851" x2="7.23458" y2="11.0138" gradientUnits="userSpaceOnUse">
<stop stop-color="#91F27F" stop-opacity="0"/>
<stop offset="1" stop-color="#FFED82"/>
</linearGradient>
<linearGradient id="paint10_linear_1_328" x1="57.5603" y1="45.7912" x2="55.1839" y2="43.1754" gradientUnits="userSpaceOnUse">
<stop stop-color="#FFB4AF"/>
<stop offset="0.3177" stop-color="#FFA2AE"/>
<stop offset="0.9516" stop-color="#FF74AB"/>
<stop offset="1" stop-color="#FF70AB"/>
</linearGradient>
<linearGradient id="paint11_linear_1_328" x1="34.6491" y1="26.1534" x2="34.0843" y2="23.5293" gradientUnits="userSpaceOnUse">
<stop stop-color="#FFD9A9"/>
<stop offset="1" stop-color="#FBB27E"/>
</linearGradient>
<linearGradient id="paint12_linear_1_328" x1="32.2623" y1="25.5164" x2="32.7128" y2="22.7021" gradientUnits="userSpaceOnUse">
<stop stop-color="#FFD9A9"/>
<stop offset="1" stop-color="#FBB27E"/>
</linearGradient>
<linearGradient id="paint13_linear_1_328" x1="30.6132" y1="24.4075" x2="31.9679" y2="21.0198" gradientUnits="userSpaceOnUse">
<stop stop-color="#FFD9A9"/>
<stop offset="1" stop-color="#FBB27E"/>
</linearGradient>
<linearGradient id="paint14_linear_1_328" x1="41.4798" y1="26.0287" x2="32.1254" y2="35.589" gradientUnits="userSpaceOnUse">
<stop stop-color="#FFD9A9"/>
<stop offset="1" stop-color="#FBB27E"/>
</linearGradient>
<linearGradient id="paint15_linear_1_328" x1="51.0097" y1="39.5743" x2="52.711" y2="41.6853" gradientUnits="userSpaceOnUse">
<stop stop-color="#FBB27E" stop-opacity="0"/>
<stop offset="1" stop-color="#FF7044"/>
</linearGradient>
<linearGradient id="paint16_linear_1_328" x1="54.1124" y1="41.9037" x2="55.0698" y2="48.7112" gradientUnits="userSpaceOnUse">
<stop stop-color="#9B62CD"/>
<stop offset="1" stop-color="#833AC1"/>
</linearGradient>
<linearGradient id="paint17_linear_1_328" x1="54.1462" y1="44.2169" x2="53.8189" y2="32.0457" gradientUnits="userSpaceOnUse">
<stop stop-color="#9B62CD" stop-opacity="0"/>
<stop offset="1" stop-color="#FF75C8"/>
</linearGradient>
<linearGradient id="paint18_linear_1_328" x1="39.4774" y1="31.2838" x2="43.7212" y2="27.6211" gradientUnits="userSpaceOnUse">
<stop stop-color="#FFD9A9" stop-opacity="0"/>
<stop offset="1" stop-color="white"/>
</linearGradient>
<clipPath id="clip0_1_328">
<rect width="46.2541" height="46.2541" fill="white" transform="translate(0.45752 18.4711) rotate(-23.2042)"/>
</clipPath>
</defs>
</svg>
