<svg width="19" height="19" viewBox="0 0 19 19" fill="none" xmlns="http://www.w3.org/2000/svg">
<g clip-path="url(#clip0_1_132)">
<path d="M11.7247 0.629584L6.88091 5.23578C6.47869 5.61827 6.7494 6.29574 7.30444 6.29574H8.77027C8.92945 6.29574 9.01917 6.4786 8.92175 6.60449L4.72574 12.0267C4.41318 12.4306 4.70107 13.0174 5.21178 13.0174H6.94617C7.09729 13.0174 7.18888 13.1843 7.10774 13.3118L4.29159 17.7375C3.98319 18.2222 4.59664 18.7623 5.03834 18.395L12.6197 12.0904C13.0619 11.7227 12.8018 11.0033 12.2267 11.0033H9.5322C9.37655 11.0033 9.28588 10.8275 9.3762 10.7007L12.956 5.674C13.2457 5.26713 12.9548 4.70288 12.4554 4.70288H10.7116C10.5662 4.70288 10.4738 4.54723 10.5435 4.41957L12.35 1.10997C12.5681 0.710407 12.0546 0.315925 11.7247 0.629584Z" fill="url(#paint0_linear_1_132)"/>
<path d="M10.2403 9.4873L11.2677 8.04462L8.37861 5.15552C8.36725 5.10903 8.32691 5.07007 8.27033 5.07007H7.05523L6.88087 5.23588C6.86467 5.25127 6.84999 5.26729 6.83594 5.28356C6.8322 5.28794 6.82857 5.29232 6.82497 5.29676C6.81339 5.31095 6.80252 5.32539 6.7925 5.3401C6.79073 5.34268 6.78879 5.34515 6.7871 5.34776C6.77584 5.36485 6.76578 5.38232 6.75653 5.4C6.7542 5.40445 6.75208 5.40893 6.7499 5.41341C6.74263 5.4282 6.73602 5.44313 6.7301 5.4582C6.72858 5.46201 6.72692 5.46579 6.72551 5.46963C6.71873 5.48802 6.71291 5.50659 6.70804 5.52529C6.70712 5.52886 6.70641 5.53242 6.70557 5.53599C6.70168 5.55212 6.69851 5.56832 6.696 5.58459C6.69537 5.58861 6.6947 5.59263 6.69417 5.59666C6.69159 5.6161 6.68975 5.63559 6.68908 5.65507C6.68905 5.65602 6.68908 5.65697 6.68908 5.65793C6.68852 5.67667 6.68898 5.69541 6.69014 5.71404C6.69035 5.71736 6.69057 5.72068 6.69081 5.72396C6.69392 5.76374 6.70077 5.80309 6.71132 5.84139C6.71185 5.84329 6.71241 5.84523 6.71294 5.84714C6.7242 5.88667 6.73917 5.9251 6.75784 5.9617C6.75787 5.96177 6.75791 5.96185 6.75794 5.96188C6.79631 6.03702 6.84967 6.10465 6.91581 6.15903C6.9162 6.15953 6.91666 6.15992 6.91705 6.16041C7.01891 6.2437 7.1507 6.29583 7.30444 6.29583H8.77027C8.92945 6.29583 9.01913 6.47869 8.92175 6.60459L8.24058 7.48482C8.24054 7.48479 10.2274 9.47421 10.2403 9.4873Z" fill="url(#paint1_linear_1_132)"/>
<path d="M7.4456 2.32897L3.6908 6.14607C3.62152 6.21648 3.67142 6.33553 3.77021 6.33553H5.32382C5.40955 6.33553 5.46313 6.42831 5.42028 6.50257L3.6393 9.58841C3.57447 9.70075 3.72143 9.81443 3.81387 9.72344L8.34846 5.26082C8.41947 5.19094 8.36999 5.07006 8.27035 5.07006H6.41649C6.33242 5.07006 6.27867 4.98044 6.31823 4.90626L7.62327 2.45946C7.68376 2.34606 7.53574 2.23731 7.4456 2.32897Z" fill="url(#paint2_linear_1_132)"/>
<path d="M5.0383 18.3951L12.6196 12.0905C13.0619 11.7228 12.8018 11.0034 12.2267 11.0034H9.53216C9.37651 11.0034 9.28584 10.8275 9.37616 10.7008L12.9559 5.6741C13.2457 5.26723 12.9548 4.70298 12.4553 4.70298H10.7115C10.5661 4.70298 10.4738 4.54733 10.5434 4.41967L12.3499 1.11007C12.4582 0.911792 12.3861 0.714816 12.2458 0.60498L8.46614 4.99458C8.2566 5.23793 8.4295 5.61495 8.75064 5.61495H10.4342C10.7455 5.61495 10.9215 5.97209 10.7319 6.219L6.7105 11.4562C6.5209 11.7031 6.69695 12.0602 7.00828 12.0602H9.37807C9.70665 12.0602 9.87667 12.4525 9.65205 12.6923L4.34985 18.3532C4.51708 18.5284 4.80218 18.5914 5.0383 18.3951Z" fill="url(#paint3_linear_1_132)"/>
<path d="M12.6781 11.1993C12.6386 11.1559 12.5925 11.118 12.5406 11.0872C12.5386 11.086 12.5365 11.0849 12.5345 11.0837C12.5194 11.075 12.5038 11.067 12.4878 11.0596C12.4854 11.0585 12.4831 11.0573 12.4807 11.0562C12.4454 11.0404 12.4078 11.028 12.3682 11.019C12.3629 11.0178 12.3575 11.0168 12.3521 11.0158C12.3374 11.0129 12.3224 11.0105 12.3071 11.0086C12.3012 11.0079 12.2955 11.0071 12.2896 11.0065C12.269 11.0046 12.2481 11.0033 12.2267 11.0033H11.7695L10.2459 12.5522C10.1911 12.6079 10.211 12.6936 10.2703 12.7273L10.9893 13.4462L12.6196 12.0905C12.9162 11.8438 12.8965 11.4392 12.6781 11.1993Z" fill="url(#paint4_linear_1_132)"/>
<path d="M14.0006 8.7351L10.2459 12.5522C10.1766 12.6226 10.2265 12.7417 10.3253 12.7417H11.8789C11.9646 12.7417 12.0182 12.8344 11.9753 12.9087L10.1944 15.9945C10.1295 16.1069 10.2765 16.2206 10.3689 16.1296L14.9035 11.6669C14.9745 11.5971 14.925 11.4762 14.8254 11.4762H12.9715C12.8875 11.4762 12.8337 11.3866 12.8733 11.3124L14.1783 8.86558C14.2388 8.75218 14.0908 8.64344 14.0006 8.7351Z" fill="url(#paint5_linear_1_132)"/>
</g>
<defs>
<linearGradient id="paint0_linear_1_132" x1="5.04646" y1="7.37062" x2="12.2232" y2="12.0412" gradientUnits="userSpaceOnUse">
<stop stop-color="#FFE548"/>
<stop offset="0.1758" stop-color="#FFDE50"/>
<stop offset="0.4446" stop-color="#FFCA65"/>
<stop offset="0.7709" stop-color="#FFAA87"/>
<stop offset="1" stop-color="#FF90A4"/>
</linearGradient>
<linearGradient id="paint1_linear_1_132" x1="9.07101" y1="7.10022" x2="6.8478" y2="5.1679" gradientUnits="userSpaceOnUse">
<stop stop-color="#FFD00D" stop-opacity="0"/>
<stop offset="1" stop-color="#DB722B"/>
</linearGradient>
<linearGradient id="paint2_linear_1_132" x1="5.00999" y1="5.27356" x2="7.06686" y2="7.76674" gradientUnits="userSpaceOnUse">
<stop stop-color="#FFE548"/>
<stop offset="0.1758" stop-color="#FFDE50"/>
<stop offset="0.4446" stop-color="#FFCA65"/>
<stop offset="0.7709" stop-color="#FFAA87"/>
<stop offset="1" stop-color="#FF90A4"/>
</linearGradient>
<linearGradient id="paint3_linear_1_132" x1="13.2328" y1="7.82937" x2="4.75595" y2="10.9459" gradientUnits="userSpaceOnUse">
<stop stop-color="#FBA5C2" stop-opacity="0"/>
<stop offset="0.3857" stop-color="#FCA0BA" stop-opacity="0.386"/>
<stop offset="0.9737" stop-color="#FF91A5" stop-opacity="0.974"/>
<stop offset="1" stop-color="#FF90A4"/>
</linearGradient>
<linearGradient id="paint4_linear_1_132" x1="12.4558" y1="12.9472" x2="10.4937" y2="10.985" gradientUnits="userSpaceOnUse">
<stop stop-color="#FFD00D" stop-opacity="0"/>
<stop offset="1" stop-color="#DB722B"/>
</linearGradient>
<linearGradient id="paint5_linear_1_132" x1="11.565" y1="11.6797" x2="13.6219" y2="14.1729" gradientUnits="userSpaceOnUse">
<stop stop-color="#FFE548"/>
<stop offset="0.1758" stop-color="#FFDE50"/>
<stop offset="0.4446" stop-color="#FFCA65"/>
<stop offset="0.7709" stop-color="#FFAA87"/>
<stop offset="1" stop-color="#FF90A4"/>
</linearGradient>
<clipPath id="clip0_1_132">
<rect width="18" height="18" fill="white" transform="translate(0.280151 0.516113)"/>
</clipPath>
</defs>
</svg>
