<svg width="266" height="75" viewBox="0 0 266 75" fill="none" xmlns="http://www.w3.org/2000/svg">
<path d="M222.302 56.1852C221.873 56.1852 221.506 56.0344 221.199 55.7329C220.893 55.4313 220.742 55.0638 220.747 54.6304C220.742 54.2063 220.893 53.8435 221.199 53.542C221.506 53.2404 221.873 53.0896 222.302 53.0896C222.716 53.0896 223.077 53.2404 223.383 53.542C223.694 53.8435 223.852 54.2063 223.857 54.6304C223.852 54.9178 223.777 55.1793 223.63 55.4148C223.489 55.6504 223.301 55.8389 223.065 55.9802C222.834 56.1169 222.58 56.1852 222.302 56.1852Z" fill="#202020"/>
<path d="M231.233 56.2417C230.15 56.2417 229.219 56.0038 228.442 55.5279C227.669 55.0521 227.073 54.3948 226.654 53.5561C226.239 52.7127 226.032 51.7421 226.032 50.6443C226.032 49.5418 226.244 48.5688 226.668 47.7254C227.092 46.8773 227.69 46.2177 228.463 45.7465C229.24 45.2707 230.159 45.0327 231.219 45.0327C232.1 45.0327 232.88 45.1953 233.559 45.5204C234.242 45.8408 234.786 46.2954 235.191 46.8844C235.596 47.4686 235.827 48.1518 235.884 48.934H233.438C233.339 48.411 233.104 47.9751 232.732 47.6265C232.364 47.2731 231.872 47.0964 231.255 47.0964C230.732 47.0964 230.272 47.2378 229.876 47.5205C229.481 47.7985 229.172 48.1989 228.951 48.7219C228.734 49.2449 228.625 49.8716 228.625 50.6019C228.625 51.3416 228.734 51.9777 228.951 52.5101C229.167 53.0378 229.471 53.4454 229.862 53.7328C230.258 54.0155 230.722 54.1568 231.255 54.1568C231.631 54.1568 231.968 54.0862 232.265 53.9448C232.567 53.7987 232.819 53.5891 233.021 53.3158C233.224 53.0425 233.363 52.7104 233.438 52.3193H235.884C235.822 53.0873 235.596 53.7681 235.205 54.3618C234.814 54.9507 234.282 55.4125 233.608 55.747C232.934 56.0768 232.143 56.2417 231.233 56.2417Z" fill="#202020"/>
<path d="M242.72 56.2417C241.66 56.2417 240.741 56.0085 239.963 55.5421C239.186 55.0756 238.583 54.423 238.154 53.5844C237.73 52.7457 237.518 51.7657 237.518 50.6443C237.518 49.5229 237.73 48.5405 238.154 47.6972C238.583 46.8538 239.186 46.1988 239.963 45.7324C240.741 45.2659 241.66 45.0327 242.72 45.0327C243.78 45.0327 244.699 45.2659 245.476 45.7324C246.253 46.1988 246.854 46.8538 247.278 47.6972C247.707 48.5405 247.921 49.5229 247.921 50.6443C247.921 51.7657 247.707 52.7457 247.278 53.5844C246.854 54.423 246.253 55.0756 245.476 55.5421C244.699 56.0085 243.78 56.2417 242.72 56.2417ZM242.734 54.1922C243.309 54.1922 243.789 54.0343 244.176 53.7187C244.562 53.3983 244.849 52.9695 245.038 52.4324C245.231 51.8952 245.328 51.2969 245.328 50.6372C245.328 49.9729 245.231 49.3721 245.038 48.835C244.849 48.2932 244.562 47.8621 244.176 47.5417C243.789 47.2213 243.309 47.0611 242.734 47.0611C242.145 47.0611 241.655 47.2213 241.264 47.5417C240.877 47.8621 240.588 48.2932 240.395 48.835C240.206 49.3721 240.112 49.9729 240.112 50.6372C240.112 51.2969 240.206 51.8952 240.395 52.4324C240.588 52.9695 240.877 53.3983 241.264 53.7187C241.655 54.0343 242.145 54.1922 242.734 54.1922Z" fill="#202020"/>
<path d="M250.093 56.0297V45.1741H252.538V47.0187H252.665C252.892 46.3967 253.266 45.9114 253.789 45.5628C254.312 45.2094 254.936 45.0327 255.662 45.0327C256.397 45.0327 257.017 45.2118 257.521 45.5698C258.03 45.9232 258.388 46.4062 258.595 47.0187H258.708C258.948 46.4156 259.354 45.935 259.924 45.5769C260.499 45.2141 261.179 45.0327 261.966 45.0327C262.965 45.0327 263.78 45.3484 264.412 45.9798C265.043 46.6111 265.359 47.5322 265.359 48.7431V56.0297H262.793V49.1389C262.793 48.4652 262.614 47.9728 262.256 47.6618C261.898 47.3461 261.46 47.1883 260.941 47.1883C260.324 47.1883 259.841 47.3815 259.493 47.7678C259.149 48.1495 258.977 48.6466 258.977 49.2591V56.0297H256.468V49.0329C256.468 48.4722 256.298 48.0246 255.959 47.6901C255.624 47.3556 255.186 47.1883 254.644 47.1883C254.277 47.1883 253.942 47.2825 253.641 47.471C253.339 47.6548 253.099 47.9162 252.92 48.2555C252.741 48.59 252.651 48.9811 252.651 49.4287V56.0297H250.093Z" fill="#202020"/>
<path d="M29.4171 16.3417C33.438 16.3417 37.9228 12.9395 39.0826 8.53198C40.1652 4.20182 37.7681 0.799561 33.5926 0.799561C29.4944 0.799561 25.1643 4.20182 23.9271 8.53198C22.8446 12.9395 25.3963 16.3417 29.4171 16.3417ZM0.884493 72.711C11.7872 73.4843 22.6126 67.5303 26.4788 53.2254L35.1391 20.8265H20.6022L20.5248 21.1358C20.4475 21.7544 20.7568 27.9403 19.2876 33.5077L14.1069 52.9934C11.8645 61.1124 7.99832 67.5303 0.575195 72.2471L0.884493 72.711Z" fill="#202020"/>
<path d="M49.9382 60.8804C57.6706 60.8804 64.0885 57.4782 66.0217 50.6737C67.5681 45.4156 65.5577 40.4669 58.8305 35.5181C53.7271 31.7292 50.3248 30.0281 50.6341 27.0125C50.8661 25.002 52.4126 23.7648 54.9643 23.7648C59.8357 23.7648 64.3978 29.0229 67.2588 34.1263H67.6455L70.3518 23.0689C65.635 21.2131 60.9183 20.3626 56.8201 20.3626C48.1598 20.3626 41.5872 23.5329 39.8861 30.0281C38.2623 36.214 42.4378 40.3895 48.4691 44.7197C52.8765 47.89 56.3561 50.519 55.2736 54.2306C54.8096 55.8544 53.4178 57.3235 50.9434 57.2462C45.1441 57.2462 40.7366 50.3644 37.489 45.4929H37.1024L33.7775 57.1689C39.1128 59.5659 44.9895 60.8804 49.9382 60.8804Z" fill="#202020"/>
<path d="M81.1542 60.7258C87.9588 60.7258 94.6086 53.4573 97.6243 45.8022L96.7737 45.4929C93.7581 49.2045 90.2785 51.6789 88.2681 51.7562C87.1082 51.7562 86.4123 50.9829 87.1082 48.2766L93.6807 24.4608H103.656L104.583 20.8265H94.6086L98.3202 6.98549L97.7789 7.21747C92.2116 12.1662 84.8658 17.2696 76.5148 20.9812L75.5869 24.4608H80.9996L74.7363 47.8127C72.7259 54.8492 75.0456 60.7258 81.1542 60.7258Z" fill="#202020"/>
<path d="M133.183 23.3009C133.801 25.466 134.497 28.8682 134.265 33.9716C133.878 41.6267 130.863 50.2097 126.378 56.7823C126.455 47.658 125.837 39.2297 124.986 32.2705C123.904 24.4608 122.202 20.3626 117.486 20.3626C111.996 20.3626 106.196 25.7753 102.717 33.6623L103.567 33.8943C106.196 31.0333 108.516 29.0229 110.217 29.0229C111.454 29.0229 112.614 30.0281 113.001 34.049C113.929 43.7145 114.625 54.9265 114.547 66.7571C113.465 67.1437 112.382 67.3757 111.3 67.453C106.892 67.9169 103.335 65.8292 100.861 60.5711H100.552L94.3658 73.4843C99.7012 75.3401 105.423 74.9534 110.604 73.0977C128.002 67.453 143.621 40.6215 147.333 20.1306L133.183 23.3009Z" fill="#202020"/>
<path d="M153.367 60.6485C159.939 60.6485 165.738 54.6945 168.677 47.0394L167.826 46.7301C163.573 51.7562 158.547 54.4625 160.016 48.8952L172.543 2.11407L157.465 3.89253V4.1245C157.465 4.97507 157.697 10.7744 156.228 16.3417L147.258 49.6684C145.634 55.2358 146.794 60.6485 153.367 60.6485Z" fill="#202020"/>
<path d="M215.991 46.8074C211.661 51.8335 206.789 54.2306 208.104 49.2818L215.759 20.8265H214.058C211.893 21.9091 207.562 23.7648 203.773 24.9247C202.382 22.141 198.902 20.3626 194.417 20.3626C188.85 20.3626 180.112 23.2236 174.777 36.7553C169.442 50.287 172.303 60.8804 180.808 60.8804C184.365 60.8804 189.391 59.0247 195.036 51.3696C194.108 56.3956 195.577 60.7258 201.454 60.7258C208.104 60.7258 213.826 54.7718 216.841 47.1167L215.991 46.8074ZM187.69 53.3027C183.36 53.3027 184.829 45.8796 188.231 37.1419C190.087 32.0385 193.876 24.6154 198.206 24.6154C199.985 24.6927 201.299 25.9299 201.608 27.7084L199.211 36.3687H199.134C195.964 48.5086 190.938 53.3027 187.69 53.3027Z" fill="#202020"/>
</svg>
