<svg width="28" height="26" viewBox="0 0 28 26" fill="none" xmlns="http://www.w3.org/2000/svg">
<g clip-path="url(#clip0_1_255)">
<path d="M24.74 20.1255L21.1938 14.4028C20.0498 14.7427 19.2406 15.3247 17.9907 15.3247C17.406 15.3247 16.9696 15.1997 16.5629 15.0278C16.8086 15.7388 16.94 16.4927 16.94 17.2778C16.94 19.4458 15.9358 21.3911 14.3301 22.7466H23.0919C24.1384 22.7466 24.99 21.9614 24.99 20.9966C24.99 20.6919 24.9052 20.3911 24.74 20.1255ZM20.7531 18.645C20.5192 18.645 20.3294 18.4704 20.3294 18.2544C20.3294 17.9313 20.0443 17.6685 19.6939 17.6685C19.3435 17.6685 19.0584 17.9313 19.0584 18.2544C19.0584 18.5774 19.3435 18.8403 19.6939 18.8403C19.9278 18.8403 20.1176 19.0149 20.1176 19.231C20.1176 19.447 19.9278 19.6216 19.6939 19.6216C18.8762 19.6216 18.211 19.0083 18.211 18.2544C18.211 17.5005 18.8762 16.8872 19.6939 16.8872C20.5116 16.8872 21.1768 17.5005 21.1768 18.2544C21.1768 18.4704 20.987 18.645 20.7531 18.645ZM22.236 21.1841C21.8852 21.1841 21.6005 20.9216 21.6005 20.5981C21.6005 20.2747 21.8852 20.0122 22.236 20.0122C22.5868 20.0122 22.8715 20.2747 22.8715 20.5981C22.8715 20.9216 22.5868 21.1841 22.236 21.1841Z" fill="#F7A539"/>
<path d="M14.4402 15.3521C13.3852 15.481 12.6777 16.106 11.7879 16.106C10.6821 16.106 10.1313 15.3247 8.75013 15.3247C7.36892 15.3247 6.82237 16.106 5.71655 16.106C4.83106 16.106 4.33958 15.481 3.33969 15.3521C3.09395 15.9497 2.95837 16.6021 2.95837 17.2778C2.95837 20.2974 5.61487 22.7466 8.88995 22.7466C12.165 22.7466 14.8215 20.2974 14.8215 17.2778C14.8215 16.6021 14.6859 15.9497 14.4402 15.3521ZM6.77153 19.6216C6.53765 19.6216 6.34784 19.447 6.34784 19.231C6.34784 19.0149 6.53765 18.8403 6.77153 18.8403C7.0054 18.8403 7.19521 18.6653 7.19521 18.4497C7.19521 18.2341 7.00498 18.0591 6.77153 18.0591C6.53808 18.0591 6.34784 18.2341 6.34784 18.4497C6.34784 18.6653 6.15803 18.8403 5.92416 18.8403C5.69029 18.8403 5.50048 18.6657 5.50048 18.4497C5.50048 17.8036 6.07075 17.2778 6.77153 17.2778C7.4723 17.2778 8.04258 17.8036 8.04258 18.4497C8.04258 19.0958 7.4723 19.6216 6.77153 19.6216ZM10.7965 20.7935C9.97881 20.7935 9.31363 20.1802 9.31363 19.4263C9.31363 18.6724 9.97881 18.0591 10.7965 18.0591C11.6142 18.0591 12.2794 18.6724 12.2794 19.4263C12.2794 20.1802 11.6142 20.7935 10.7965 20.7935Z" fill="#F7A539"/>
<path d="M10.797 20.0122C11.1482 20.0122 11.4329 19.7499 11.4329 19.4263C11.4329 19.1027 11.1482 18.8403 10.797 18.8403C10.4457 18.8403 10.161 19.1027 10.161 19.4263C10.161 19.7499 10.4457 20.0122 10.797 20.0122Z" fill="#F7A539"/>
<path d="M7.52481 11.4283C7.46168 11.4412 5.96268 11.7678 4.44335 13.0869C4.27303 13.235 4.26498 13.4822 4.42556 13.6393C4.61918 13.815 4.94245 13.7272 5.02465 13.6561C6.36688 12.4908 7.70148 12.1924 7.71377 12.1897C7.94213 12.142 8.08449 11.9326 8.0328 11.7221C7.98069 11.5123 7.75317 11.3795 7.52565 11.4283H7.52481Z" fill="black"/>
<path d="M26.9465 18.9626L20.7531 8.9708V3.57275C21.6271 3.42783 22.0241 2.83096 22.0241 2.23877C22.0241 1.87705 21.8661 1.52471 21.5907 1.27119C21.3111 1.01338 20.9382 0.871582 20.5412 0.871582H15.9231C15.1414 0.871582 14.4559 1.41377 14.4021 2.13252C14.3699 2.5626 14.5338 2.95322 14.8562 3.22119C15.0711 3.39893 15.3473 3.51768 15.6689 3.57197V8.9708L14.8774 10.2474C14.7613 10.4345 14.8321 10.6731 15.035 10.7802C15.2384 10.8876 15.4973 10.8224 15.6134 10.6349L16.5167 9.17822V3.60596H18.2114C18.4453 3.60596 18.6351 3.43135 18.6351 3.21533C18.6351 2.99932 18.4453 2.82471 18.2114 2.82471H16.093C15.8006 2.82471 15.5689 2.76064 15.4231 2.63994C15.2765 2.51807 15.2456 2.35479 15.2456 2.23877C15.2456 1.91572 15.5308 1.65283 15.8811 1.65283H20.5417C20.7099 1.65283 20.8743 1.71494 20.992 1.82393C21.1094 1.93174 21.1772 2.08291 21.1772 2.23877C21.1772 2.60752 20.8738 2.8208 20.3446 2.82471C20.1057 2.82627 19.9061 2.99111 19.9061 3.21143V9.17861L26.211 19.3501C26.5211 19.8524 26.6851 20.422 26.6851 20.997C26.6851 22.8235 25.0734 24.3091 23.0922 24.3091H13.3301C13.1128 24.3091 12.9009 24.286 12.6921 24.2517C13.389 23.929 14.0364 23.5267 14.616 23.0345C16.362 21.561 17.3636 19.4622 17.3636 17.2778C17.3636 16.4685 17.2301 15.6716 16.9666 14.9099C16.5298 13.6407 15.7324 12.4833 14.6605 11.5618C13.7343 10.77 12.6239 10.1759 11.432 9.83252V6.30713C12.3061 6.16221 12.7031 5.56533 12.7031 4.97314C12.7031 4.61143 12.5451 4.25908 12.2697 4.00557C11.99 3.74775 11.6172 3.60596 11.2202 3.60596H6.60204C5.82035 3.60596 5.13483 4.14814 5.08102 4.86689C5.04882 5.29697 5.21278 5.6876 5.53521 5.95557C5.75002 6.1333 6.02626 6.25205 6.34783 6.30635V9.83291C2.44062 10.9595 -0.0146244 14.4462 0.478543 18.238C0.937393 21.7813 4.0646 24.6427 7.91504 25.0411C8.24339 25.0747 8.56963 25.0919 8.8946 25.0919C9.77755 25.0919 10.6431 24.9618 11.4812 24.7122C12.0616 24.9591 12.6811 25.0903 13.3306 25.0903H23.0922C25.5407 25.0903 27.5324 23.254 27.5324 20.997C27.5324 20.2868 27.3299 19.5837 26.9469 18.963L26.9465 18.9626ZM8.0091 24.2642C4.54548 23.906 1.73265 21.3325 1.31956 18.145C0.864096 14.6407 3.20368 11.4267 6.88252 10.5024C7.06725 10.4563 7.19478 10.3017 7.19478 10.1255V5.94971C7.19478 5.73369 7.00497 5.55908 6.77109 5.55908C6.47875 5.55908 6.247 5.49502 6.10125 5.37432C5.95466 5.25244 5.92373 5.08916 5.92373 4.97314C5.92373 4.6501 6.20887 4.38721 6.55925 4.38721H11.2198C11.388 4.38721 11.5524 4.44932 11.6701 4.5583C11.7875 4.66611 11.8553 4.81729 11.8553 4.97314C11.8553 5.34541 11.5464 5.55908 11.0079 5.55908H9.3132C9.07932 5.55908 8.88951 5.73369 8.88951 5.94971C8.88951 6.16572 9.07932 6.34033 9.3132 6.34033H10.5842V10.1255C10.5842 10.3021 10.713 10.4571 10.8978 10.5028C12.076 10.795 13.1776 11.3591 14.083 12.1337C15.0478 12.963 15.7659 14.0048 16.1587 15.1466C16.3955 15.8317 16.5158 16.5489 16.5158 17.2778C16.5158 19.2438 15.6146 21.1321 14.0424 22.4595C13.2674 23.1177 12.3684 23.6114 11.3698 23.9282C10.2936 24.2704 9.16321 24.3853 8.00867 24.2646L8.0091 24.2642Z" fill="black"/>
<path d="M18.2109 7.12158C17.977 7.12158 17.7872 7.29619 17.7872 7.51221V9.56494C17.7872 9.56494 17.7872 9.56494 17.7872 9.56533L19.5337 12.5157C19.6108 12.6454 19.8781 12.7833 20.1086 12.6712C20.3158 12.5708 20.3899 12.3306 20.2776 12.1411L18.6346 9.36572V7.51221C18.6346 7.29619 18.4448 7.12158 18.2109 7.12158Z" fill="black"/>
<path d="M8.46644 11.0278C8.70059 11.0278 8.8904 10.8529 8.8904 10.6372C8.8904 10.4215 8.70059 10.2466 8.46644 10.2466C8.23229 10.2466 8.04248 10.4215 8.04248 10.6372C8.04248 10.8529 8.23229 11.0278 8.46644 11.0278Z" fill="black"/>
</g>
<defs>
<clipPath id="clip0_1_255">
<rect width="27.1158" height="25" fill="white" transform="translate(0.41626 0.090332)"/>
</clipPath>
</defs>
</svg>
